<svg xmlns="http://www.w3.org/2000/svg" enable-background="new 0 0 24 24" viewBox="0 0 24 24" id="wolfram-mathematica"><path fill="#D71000" d="M15.77,10.7c-0.535-1.531,0.141-4,0.141-4S13.612,8.01,11.93,8C10.246,7.99,8.1,6.7,8.1,6.7s0.565,2.46,0.07,4.04c-0.483,1.58-2.489,3.34-2.489,3.34s2.601,0.231,3.88,1.1C10.841,16.05,12,18.641,12,18.641s0.786-2.35,2.338-3.41c1.553-1.071,3.991-1.151,3.991-1.151s-2.016-1.84-2.559-3.37V10.7L15.77,10.7z M16.414,13.4c0,0-1.572,0.17-2.66,0.99C12.655,15.2,11.99,16.58,11.99,16.58s-0.767-1.43-1.815-2.221c-1.059-0.789-2.59-0.968-2.59-0.968c0.714-0.62,1.249-1.422,1.532-2.335l0.01-0.036C9.591,9.481,9.308,8.29,9.308,8.29s0.928,0.7,2.641,0.7c1.713,0,2.812-0.7,2.812-0.7s-0.383,1.58,0.071,2.7C15.275,12.13,16.414,13.4,16.414,13.4L16.414,13.4z"></path><path fill="#D71000" d="M18.611,7.23l0.504-4.94l-4.596,2L12,0l-2.52,4.29l-4.586-2l0.494,4.95L0.5,8.29L3.826,12L0.51,15.7l4.889,1.069L4.895,21.71l4.586-2L12,24l2.519-4.29l4.596,2l-0.504-4.941L23.5,15.71L20.174,12h-0.01L23.5,8.3L18.611,7.23L18.611,7.23z M20.426,14.73c0,0-4.737,0.619-5.584,1.219h0.011C14.016,16.561,12,20.81,12,20.81s-1.512-3.86-3.024-4.86c-1.492-1-5.423-1.219-5.423-1.219s3.014-2.371,3.599-4.47c0.594-2.1-0.373-5.371-0.373-5.371s2.923,2.101,5.12,2.101c2.187,0,5.301-2.101,5.301-2.101s-0.827,4.5-0.534,5.46C16.969,11.311,20.426,14.73,20.426,14.73L20.426,14.73z"></path><path fill="#D71000" d="M13.743,9.6c0,0-0.957,0.381-1.783,0.37c-0.827,0-1.714-0.37-1.714-0.37c0.051,0.58,0,1.15-0.171,1.7c-0.272,0.86-0.917,1.639-0.917,1.639c1.219,0.248,2.228,0.986,2.831,1.99L12,14.95c0,0,0.453-0.85,1.189-1.33c0.504-0.309,1.058-0.55,1.643-0.7c0,0-0.746-0.779-1.028-1.571C13.522,10.57,13.743,9.6,13.743,9.6L13.743,9.6z"></path><path fill="#DEDEDE" d="M9.308,8.29c0,0,0.282,1.191-0.181,2.729l-0.01,0.036c-0.283,0.913-0.818,1.716-1.532,2.335c0,0,1.531,0.179,2.59,0.968c1.048,0.791,1.815,2.221,1.815,2.221s0.003-0.007,0.01-0.021v-1.61l0,0l-0.011-0.02c-0.603-1.005-1.612-1.742-2.831-1.99c0,0,0.645-0.779,0.917-1.639c0.171-0.55,0.222-1.12,0.171-1.7c0,0,0.887,0.37,1.714,0.37c0.011,0,0.023,0,0.035,0c0.002,0,0.004,0,0.005,0V8.99c-0.017,0-0.034,0-0.051,0C10.237,8.99,9.308,8.29,9.308,8.29L9.308,8.29z"></path><path fill="#DEDEDE" d="M6.779,4.889c0,0,0.968,3.271,0.373,5.371c-0.585,2.099-3.599,4.47-3.599,4.47s3.93,0.219,5.423,1.219c1.512,1,3.024,4.86,3.024,4.86l0,0v-2.17l0,0c0,0-1.16-2.591-2.439-3.461c-1.279-0.869-3.88-1.1-3.88-1.1s2.006-1.76,2.489-3.34C8.664,9.16,8.1,6.7,8.1,6.7s2.146,1.29,3.83,1.3c0.006,0,0.012,0,0.018,0C11.965,8,11.983,8,12,8v-1.01C11.966,6.99,11.933,6.99,11.899,6.99C9.702,6.99,6.779,4.889,6.779,4.889L6.779,4.889z"></path><path fill="#BB0E00" d="M8.1,6.7c0,0,0.565,2.46,0.07,4.04c-0.483,1.58-2.489,3.34-2.489,3.34s2.601,0.231,3.88,1.1C10.841,16.05,12,18.641,12,18.641l0,0V16.56c-0.007,0.013-0.01,0.021-0.01,0.021s-0.767-1.43-1.815-2.221c-1.059-0.789-2.59-0.968-2.59-0.968c0.714-0.62,1.249-1.422,1.532-2.335l0.01-0.036C9.591,9.481,9.308,8.29,9.308,8.29s0.928,0.7,2.641,0.7c0.017,0,0.034,0,0.051,0V8c-0.017,0-0.035,0-0.052,0c-0.006,0-0.012,0-0.018,0C10.246,7.99,8.1,6.7,8.1,6.7L8.1,6.7z"></path><path fill="#BB0E00" d="M12,0l-2.52,4.29l-4.586-2l0.494,4.95L0.5,8.29L3.826,12L0.51,15.7l4.889,1.069L4.895,21.71l4.586-2L12,24V20.81l0,0c0,0-1.512-3.86-3.024-4.86c-1.492-1-5.423-1.219-5.423-1.219s3.014-2.371,3.599-4.47c0.594-2.1-0.373-5.371-0.373-5.371s2.923,2.101,5.12,2.101c0.033,0,0.067,0,0.101-0.001V0L12,0z"></path><path fill="#BB0E00" d="M10.246,9.6c0.051,0.58,0,1.15-0.171,1.7c-0.272,0.86-0.917,1.639-0.917,1.639c1.219,0.248,2.228,0.986,2.831,1.99L12,14.95l0,0V9.97c-0.002,0-0.004,0-0.005,0c-0.012,0-0.023,0-0.035,0C11.133,9.97,10.246,9.6,10.246,9.6L10.246,9.6z"></path></svg>